<?xml version="1.0" encoding="utf-8"?>
<!-- Generator: Adobe Illustrator 19.2.1, SVG Export Plug-In . SVG Version: 6.00 Build 0)  -->
<svg version="1.1" id="layer" xmlns="http://www.w3.org/2000/svg" xmlns:xlink="http://www.w3.org/1999/xlink" x="0px" y="0px"
	 viewBox="0 0 652 652" style="enable-background:new 0 0 652 652;" xml:space="preserve">
<style type="text/css">
	.st0{fill:#26225C;}
	.st1{fill:#E11D3F;}
</style>
<path class="st0" d="M581.1,573.3L581.1,573.3l-0.3-0.1c-3.1-0.6-3.1-1.1-3.1-10v-26.9c0-8.6-5.6-15.1-13-15.1
	c-2.7,0-7.5,0-17.3,7.7l-0.5,0.4l0-8c0-0.1-0.2-0.2-0.2-0.2c-0.1,0-0.2-0.1-0.3-0.1c-0.1,0-0.3,0-0.3,0l-19.9,7.6
	c-0.1,0.1-0.1,0.2-0.1,0.2v0v0c0,0.1,0.1,0.4,0.2,0.5l2.4,4.1c1.4,2.2,1.4,3.4,1.4,4.9v24.8c0,8.9,0,9.4-3.1,10l-0.4,0.1l0,0
	c0,0,0,0,0,0l0,0l0,0c-0.1,0-0.3,0.3-0.3,0.9c0,0.2,0,0.6,0.2,0.8c0.1,0.1,0.2,0.1,0.3,0.1h23c0.3,0,0.6-0.1,0.8-0.3
	c0.3-0.3,0.3-0.6,0.3-0.6c0-1-0.5-1-0.6-1.1l0,0l-0.1,0c-3.1-0.6-3.1-1.1-3.1-10v-31.3l0.2-0.1c1.3-0.5,2.8-0.7,4.4-0.7
	c6.3,0,9.4,5.5,9.4,16.8v15.3c0,8.9,0,9.4-3.1,10l-0.2,0c-0.1,0-0.6,0.1-0.6,1c0,0,0,0.9,0.6,0.9l0.3,0l23,0c0.2,0,0.3-0.1,0.4-0.2
	c0.2-0.2,0.2-0.6,0.2-0.8C581.6,573.4,581.1,573.3,581.1,573.3 M152.6,493.4c0.8-2.3,2.2-3.8,6.9-4.2l0,0l0,0c0,0,0,0,0.1,0
	c0,0,0,0,0.1,0c0.4,0,0.8-0.2,0.8-1.1c0-1.1-0.6-1.1-0.8-1.1c0,0-0.1,0-0.1,0l-0.4,0v0h-33.7v0l-0.3,0l0,0c-0.8,0-0.9,0.9-0.9,1.1
	c0,0.9,0.5,1.1,0.8,1.1c0,0,0,0,0.1,0c0,0,0.1,0,0.1,0l0,0l0,0c4.7,0.4,6.1,1.9,6.8,4.2c0.9,2.5,1.1,16.4,1.1,28.2v0.2l-35.3,11.4
	v-0.4c0-15.5,0.2-36.5,1.1-39.3c0.8-2.3,2.2-3.8,6.8-4.2l0,0c0,0,0.1,0,0.1,0c0,0,0,0,0.1,0c0.3,0,0.8-0.2,0.8-1.1
	c0-0.3-0.1-1.1-0.9-1.1H71.7c-0.2,0-0.8,0-0.8,1.1c0,0.9,0.4,1.1,0.8,1.1c4.7,0.4,6.1,1.9,6.9,4.2c1.1,3,1.1,23.1,1.1,41.7v3.4
	c0,19.6-0.1,27.3-1.1,30.3c-0.8,2.3-2.2,3.8-6.8,4.2h0h0c-0.2,0-0.8,0-0.8,1.1c0,0.9,0.4,1.1,0.8,1.1l0,0h34.2l0,0
	c0.8,0,0.9-0.9,0.9-1.1c0-0.7-0.3-1-0.9-1.1c-4.7-0.4-6.1-1.9-6.9-4.2c-1-3-1.1-10.9-1.1-29.5v-0.2l35.3-11.4l0,10.8
	c0,19.6-0.1,27.3-1.1,30.3c-0.8,2.3-2.2,3.8-6.8,4.2l0,0c0,0-0.1,0-0.1,0c-0.6,0.1-0.9,0.4-0.9,1.1c0,0.3,0.1,1.1,0.9,1.1l0,0l0.3,0
	v0h33.7v0l0.3,0c0,0,0,0,0.1,0c0,0,0,0,0.1,0c0.4,0,0.8-0.2,0.8-1.1c0-1.1-0.6-1.1-0.8-1.1c0,0-0.1,0-0.1,0l-0.4,0V573
	c-4.5-0.5-5.8-1.9-6.6-4.2c-1-3-1.1-10.7-1.1-30.3v-3.4C151.5,516.5,151.6,496.4,152.6,493.4 M248.4,573.2L248.4,573.2
	c-3.2-0.6-3.2-1.1-3.2-10v-75.7c0-0.1-0.1-0.1-0.1-0.1c-0.1,0-0.1,0-0.2,0c-0.1,0-0.2,0-0.2,0l-20.5,6.2c-0.2,0.1-0.2,0.3-0.2,0.3v0
	c0,0,0,0.3,0.1,0.5l2.9,4.1c1.4,1.9,1.4,3.4,1.4,4.9v59.7c0,8.9,0,9.4-3.1,10c-0.5,0.1-0.8,0.4-0.8,1c0,1,0.5,1,0.7,1h23.3
	c0.2,0,0.7,0,0.7-1C249.2,573.6,249,573.3,248.4,573.2 M407.1,521.3c-4.4,0-8.4,2.4-13.4,10.2l-0.6,0.9l0-1.1l0-10.2
	c0-0.1-0.1-0.2-0.2-0.2l0,0c-0.1,0-0.2-0.1-0.3-0.1c-0.1,0-0.1,0-0.1,0l-20.1,7.9c-0.1,0-0.1,0.2-0.1,0.3c0,0.2,0.1,0.4,0.1,0.4
	l2.4,4c1.4,2.2,1.4,3.4,1.4,4.9v24.8c0,8.9,0,9.4-3.1,10l-0.1,0l0,0c-0.3,0.1-0.6,0.2-0.6,1v0c0,0,0,0.4,0.2,0.7
	c0.2,0.2,0.4,0.3,0.7,0.3h26c0.2,0,0.4-0.1,0.5-0.2c0.2-0.3,0.3-0.7,0.3-0.9c0-0.9-0.5-1-0.6-1l-3.3-0.3c-3-0.2-3.1-0.7-3.1-9.7
	v-27.8l0.1-0.1c1.6-1.3,2.7-1.7,4.1-1.7c1.9,0,3.2,1,4.5,2c1.4,1.1,3,2.3,5.5,2.3c3.2,0,7.6-3.1,7.6-8.2
	C414.9,524.6,411.8,521.3,407.1,521.3 M190,520.7c-16.2,0-29.4,12.5-29.4,27.9c0,13.4,11,27.2,29.4,27.2c16.3,0,29.5-12.5,29.5-27.9
	C219.5,534.5,208.5,520.7,190,520.7 M190,573.1c-3.2,0-5.8-2.5-7.7-7.3c-1.9-4.7-2.8-11.1-2.8-18.7c0-15.2,3.9-23.9,10.6-23.9
	c6.5,0,10.7,10.2,10.7,25.9C200.7,564.6,196.9,573.1,190,573.1 M292.9,520.7c-7.7,0-14.3,4.5-17.8,7.6l-0.5,0.5v-22.1v-19.4
	c0-0.1-0.1-0.2-0.1-0.2c-0.1,0-0.2-0.1-0.3-0.1c-0.2,0-0.3,0-0.3,0l-20.4,6.2c-0.2,0.1-0.3,0.2-0.3,0.2l0,0v0c0,0.2,0.1,0.4,0.1,0.4
	l3,4.2c1.4,1.9,1.4,3.4,1.4,4.9v47.5c0,6.1-0.2,10.4-0.4,15.5l-0.1,2.4l0,0c5.9,4.7,15.1,7.5,25.2,7.5c15.3,0,31.1-11.7,31.1-31.2
	C313.6,530.3,305.3,520.7,292.9,520.7 M283.6,572.1c-4.5,0-9.1-4.4-9.1-14.1v-26.9l0.2-0.1c1.3-0.3,3-0.5,5.1-0.5
	c9.3,0,15.5,8.2,15.5,20.5C295.3,564,290.9,572.1,283.6,572.1 M491.9,520.7c-16.2,0-29.4,12.5-29.4,27.9c0,13.4,11,27.2,29.4,27.2
	c16.3,0,29.5-12.5,29.5-27.9C521.4,534.5,510.4,520.7,491.9,520.7 M491.9,573.1c-3.2,0-5.8-2.5-7.7-7.3c-1.9-4.7-2.8-11.1-2.8-18.7
	c0-15.2,3.9-23.9,10.6-23.9c6.5,0,10.7,10.2,10.7,25.9C502.6,564.6,498.8,573.1,491.9,573.1 M366.9,558.8c-0.2-0.1-0.3-0.1-0.3-0.1
	c-0.1,0-0.1,0-0.1,0l-0.1,0.1c-3.1,3.7-6.8,5.4-11.5,5.4c-11.7,0-18.9-8.4-18.9-22c0-0.7,0-1.3,0.1-1.9l0-0.3h24.8
	c3.4,0,5-1.5,5-4.7c0-8.6-7.7-14.6-18.7-14.6c-13.5,0-28,11.4-28,29.8c0,14.9,10.3,25.3,25,25.3c10.2,0,19.9-7,23-16.5l0-0.1
	C367.2,559,367,558.9,366.9,558.8 M336.4,537.1c0.5-3.4,1.7-6.6,3.2-8.9c1.8-2.7,4-4,6.5-4.1c4.4-0.2,6.1,3.8,6.1,10.5
	c0,1.7-0.9,2.6-2.8,2.7l-13.1,0.1L336.4,537.1z M458.7,562.2c-0.1,0-0.2,0-0.2,0l-0.1,0c-3.6,2.1-6.7,2.4-9.2,2.4
	c-4.5,0-8.7-0.6-8.7-5.3v-32.7l13.9,0c3.7,0,3.5-3.4,3.5-3.4v-1.5c0-0.5-0.5-0.5-0.5-0.5l-16.9,0l0-1.4l0-8.6l0,0
	c0-0.2-0.2-0.3-0.2-0.3c-0.1-0.1-0.2-0.1-0.3-0.1c-0.1,0-0.1,0-0.1,0l-20.1,8.5c-0.1,0.1-0.1,0.3-0.1,0.3l0,0v0
	c0,0.3,0.2,0.4,0.2,0.4l0,0c1.5,0.9,3.9,2.9,3.9,5.8c-0.1,5.8-0.1,24.6-0.1,38.3c0,6.9,6.2,11.8,15.2,11.8c9.3,0,16.5-6.6,20.2-12.9
	l0-0.1c0.2-0.3,0-0.5-0.1-0.5C458.9,562.2,458.8,562.2,458.7,562.2"/>
<path class="st1" d="M367.4,408.8L367.4,408.8c12.1-12.8,19.2-30,19.2-48.6c0-38.8-20-51.1-20-51.1c21-1.2,45.5-26.2,45.5-47.6
	h-45.6l-15.9,0.1l27.1-8.9V135.5c0-14.2-2.4-25.8-7.4-34.7c-6.9-13.2-24.8-25.1-50.4-25.1c-18.8,0-27.2,5.6-27.2,5.6v4.9
	c-0.3,37.7-23.6,64-52.6,72.4c0,0,5,15.6,23.1,13.4l36.7-12.1l8.3-2.3l2.7-0.6c7.7,0,13.9,6.2,13.9,13.9c0,3.8-1.6,7.3-4.1,9.8
	c-13.9,17.3-53.5,38.3-53.5,80.9c0,65,73.4,68.7,73.4,117.6c0,23.8-17,39.1-34.5,39.1c-12.3,0-16-3.3-16.6-3.9l-0.1-0.1
	c8.8,0.7,17-3.7,20.8-10.9c4.3-8.4,0.8-16.9,0.5-17.5c-0.8-1.7-2.4-4.8-5.6-7.4c-5-4-11.8-5.3-17.4-4c-9.6,2.2-15.1,11.6-16.5,18.8
	c-2.8,14,8.1,27.2,17.7,32.9c0,0,11.7,7,32.4,4.8c15.9-1.7,29-8.9,29-8.9 M350,422.2C350,422.2,350,422.2,350,422.2
	c10.2-5.7,17.4-13.4,17.4-13.4 M299.8,141.2c-3.5,0-6.3-2.8-6.3-6.3c0-3.5,2.8-6.3,6.3-6.3c3.5,0,6.3,2.8,6.3,6.3
	C306.1,138.4,303.3,141.2,299.8,141.2"/>
</svg>
